<?xml version="1.0" encoding="utf-8"?>
<!-- Generated by IcoMoon.io -->
<!DOCTYPE svg PUBLIC "-//W3C//DTD SVG 1.1//EN" "http://www.w3.org/Graphics/SVG/1.1/DTD/svg11.dtd">
<svg version="1.1" xmlns="http://www.w3.org/2000/svg" xmlns:xlink="http://www.w3.org/1999/xlink" width="512" height="512" viewBox="0 0 512 512">
<g id="icomoon-ignore">
</g>
<path d="M256 0c-139.374 0-252.729 111.381-255.924 249.987 2.96-120.932 94.916-217.987 207.924-217.987 114.875 0 208 100.288 208 224 0 26.51 21.49 48 48 48s48-21.49 48-48c0-141.385-114.615-256-256-256zM256 512c139.374 0 252.729-111.381 255.924-249.987-2.96 120.932-94.916 217.987-207.924 217.987-114.875 0-208-100.288-208-224 0-26.51-21.49-48-48-48s-48 21.49-48 48c0 141.385 114.615 256 256 256z"></path>
</svg>
